<svg width="371" height="258" viewBox="0 0 371 258" fill="none" xmlns="http://www.w3.org/2000/svg">
<mask id="mask0_693_3" style="mask-type:luminance" maskUnits="userSpaceOnUse" x="0" y="0" width="371" height="258">
<path d="M0 -4.98478e-06H370.208V257.703H0V-4.98478e-06Z" fill="white"/>
</mask>
<g mask="url(#mask0_693_3)">
<path d="M107.266 176.294L109.666 172.135H68.1284C63.7084 172.135 59.9178 168.678 59.8364 164.259C59.7538 159.756 63.3791 156.08 67.8618 156.08H74.7258H93.7978H100.452H105.063C117.074 156.08 126.81 146.344 126.81 134.334V133.802V121.944L123.152 126.147C118.919 131.01 112.788 133.802 106.342 133.802H87.5898H80.9351H71.1978C56.7471 133.802 44.6658 143.919 41.6324 157.456C41.1538 159.598 40.8911 161.822 40.8911 164.108C40.8911 180.846 54.4604 194.415 71.1978 194.415H92.9004C95.3151 194.415 97.5471 193.126 98.7551 191.034L107.266 176.294Z" fill="#F9AB0C"/>
<path d="M84.269 125.211C89.1157 125.236 93.233 122.069 94.629 117.683C95.9797 122.084 100.064 125.295 104.91 125.32C110.881 125.352 115.748 120.536 115.778 114.565C115.81 108.593 110.996 103.728 105.024 103.696C100.178 103.671 96.061 106.837 94.6637 111.224C93.313 106.823 89.229 103.612 84.3837 103.587C78.4117 103.555 73.5463 108.371 73.5143 114.341C73.4823 120.313 78.2983 125.179 84.269 125.211Z" fill="#F9AB0C"/>
<path d="M261.025 113.885C266.051 117.111 272.739 115.652 275.964 110.628C279.191 105.603 277.732 98.9132 272.707 95.6879C267.681 92.4625 260.993 93.9199 257.768 98.9452C254.541 103.971 256 110.66 261.025 113.885Z" fill="#F9AB0C"/>
<path d="M328.575 157.456C325.541 143.92 313.461 133.801 299.009 133.801H289.272H282.619H263.865C257.419 133.801 251.288 131.009 247.056 126.147L243.397 121.944V133.801V134.333C243.397 146.344 253.135 156.08 265.144 156.08H269.756H276.409H292.205H302.347C306.767 156.08 310.559 159.539 310.639 163.957C310.721 168.46 307.097 172.135 302.613 172.135H245.816H235.395H184.828L190.872 162.769H165.145L159.739 172.135L149.912 189.155C148.563 191.492 150.249 194.415 152.949 194.415H172.601H299.009C315.747 194.415 329.316 180.845 329.316 164.108C329.316 161.821 329.055 159.597 328.575 157.456Z" fill="#F9AB0C"/>
<path d="M225.595 68.2207C225.339 68.3007 225.084 68.3874 224.831 68.4754C220.294 70.0661 216.258 73.1567 213.546 77.5407L209.81 84.3327C209.831 84.3301 209.85 84.3261 209.871 84.3221C210.587 84.2141 211.28 84.1594 211.932 84.1594C213.968 84.1594 215.522 84.6834 216.688 85.3754C217.364 85.7767 218.13 85.9914 218.915 85.9714C218.966 85.9701 219.018 85.9687 219.068 85.9687C220.752 85.9687 222.404 86.6047 223.667 87.7994C226.258 90.2501 227.98 93.0127 228.858 96.1367C233.636 88.2074 239.839 77.9674 240.507 77.0941C243.643 73.0007 247.656 69.6127 252.262 67.2061C243.199 67.1541 228.78 67.2341 225.595 68.2207Z" fill="#F9AB0C"/>
<path d="M114.85 183.487L117.073 179.638L120.549 173.614L121.402 172.135L135.815 147.16C140.589 138.894 149.409 133.8 158.955 133.8H164.182H169.254H179.873H182.935H189.589H208.661H215.903C227.914 133.8 237.65 143.538 237.65 155.548V156.08V163.207C237.65 163.207 234.977 156.08 217.182 156.08H195.798H176.726H170.073H165.461H164.979C159.665 156.08 154.755 158.915 152.098 163.518L133.851 195.135L133.533 195.692L130.757 200.551L126.937 207.24L121.349 217.022C121.165 217.346 120.973 217.662 120.774 217.972C120.663 218.144 120.545 218.307 120.43 218.475L120.193 218.891C117.33 223.52 112.991 226.71 108.143 228.211C103.418 229.674 69.0088 229.144 69.0088 229.144C69.0088 229.144 85.2835 222.586 87.1755 221.93C88.2728 221.55 89.6315 220.88 91.1768 219.73C93.7875 217.79 96.9395 214.47 100.31 208.79L107.803 195.692L108.541 194.415L111.341 189.566L114.534 184.034L114.85 183.487Z" fill="white"/>
<path d="M180.046 123.285C171.123 122.854 164.759 118.522 160.343 111.097C157.694 106.643 156.394 101.93 158.297 96.8447C159.914 92.5193 162.757 91.8353 165.449 95.47C167.623 98.4047 169.385 101.815 170.578 105.274C172.815 111.763 174.126 118.639 180.046 123.285Z" fill="white"/>
<path d="M215.708 93.4279C218.989 96.5319 219.539 99.9332 219.097 103.509C218.012 112.304 208.947 121.661 200.212 123.177C197.321 123.68 196.74 123.033 197.449 120.188C198.608 115.537 201.833 112.371 205.211 109.312C209.932 105.033 214.553 100.689 215.708 93.4279Z" fill="white"/>
<path d="M171.079 92.1555C179.928 95.7995 186.463 101.726 188.108 111.955C188.144 112.178 188.236 112.425 188.18 112.625C187.507 114.997 187.433 118.802 185.989 119.426C183.063 120.693 180.793 117.73 179.519 115.275C177.98 112.31 177.163 108.971 176.019 105.799C174.388 101.274 172.744 96.7528 171.079 92.1555Z" fill="white"/>
<path d="M194.146 112.305C193.462 109.895 192.631 107.232 191.985 104.524C191.801 103.756 191.865 102.641 192.307 102.055C196.305 96.7425 201.254 92.8532 208.077 91.8265C210.491 91.4638 211.598 92.3012 210.322 94.5118C208.767 97.2025 207.006 99.8652 204.882 102.113C201.487 105.707 197.719 108.949 194.146 112.305Z" fill="white"/>
<path d="M190.481 87.5234C186.692 72.9794 213.28 73.9208 199.781 40.1501C203.211 68.1261 180.896 63.1994 190.481 87.5234Z" fill="white"/>
<path d="M185.505 70.395C180.583 58.2764 203.631 56.0697 188.149 28.4644C194.285 52.2124 174.473 50.4964 185.505 70.395Z" fill="white"/>
<path d="M175.256 216.052H175.328C175.546 216.576 175.742 216.964 175.914 217.211L182.622 226.895H188.604L180.02 215.308L187.944 204.736H182.309L175.957 214.021C175.748 214.355 175.537 214.749 175.328 215.208H175.256V204.736H170.536V226.895H175.256V216.052Z" fill="white"/>
<path d="M198.015 217.754H207.457V226.895H212.178V204.736H207.457V213.678H198.015V204.736H193.295V226.895H198.015V217.754Z" fill="white"/>
<path d="M225.211 218.168L227.743 210.43C227.943 209.828 228.072 209.204 228.13 208.556H228.259C228.324 209.356 228.439 210.002 228.6 210.487L231.119 218.168H225.211ZM225.54 204.735L217.43 226.895H222.551L224.182 221.818H232.235L233.894 226.895H239.044L231.091 204.735H225.54Z" fill="white"/>
<path d="M246.326 226.895H251.06V208.599H257.382V204.735H240.018V208.599H246.326V226.895Z" fill="white"/>
<path d="M267.596 208.327H270C272.393 208.327 273.591 209.328 273.591 211.331C273.591 212.295 273.255 213.097 272.583 213.741C271.909 214.385 271.02 214.707 269.915 214.707H267.596V208.327ZM267.596 218.312H269.027C269.541 218.312 270.029 218.484 270.487 218.825C270.944 219.169 271.531 219.937 272.247 221.129L275.723 226.895H281.159L276.98 220.329C275.741 218.423 274.612 217.296 273.591 216.952V216.895C275.135 216.456 276.348 215.699 277.231 214.62C278.113 213.544 278.555 212.251 278.555 210.744C278.555 206.739 275.917 204.736 270.644 204.736H262.876V226.895H267.596V218.312Z" fill="white"/>
<path d="M291.187 218.168L293.719 210.43C293.919 209.828 294.048 209.204 294.105 208.556H294.233C294.3 209.356 294.415 210.002 294.576 210.487L297.095 218.168H291.187ZM291.516 204.735L283.405 226.895H288.527L290.157 221.818H298.211L299.869 226.895H305.02L297.065 204.735H291.516Z" fill="white"/>
</g>
</svg>
