<?xml version="1.0" encoding="UTF-8" standalone="no"?>
<svg
   xmlns:dc="http://purl.org/dc/elements/1.1/"
   xmlns:cc="http://creativecommons.org/ns#"
   xmlns:rdf="http://www.w3.org/1999/02/22-rdf-syntax-ns#"
   xmlns:svg="http://www.w3.org/2000/svg"
   xmlns="http://www.w3.org/2000/svg"
   viewBox="0 0 370.20801 257.70267"
   height="257.70267"
   width="370.20801"
   xml:space="preserve"
   id="svg2"
   version="1.1"><metadata
     id="metadata8"><rdf:RDF><cc:Work
         rdf:about=""><dc:format>image/svg+xml</dc:format><dc:type
           rdf:resource="http://purl.org/dc/dcmitype/StillImage" /></cc:Work></rdf:RDF></metadata><defs
     id="defs6"><clipPath
       id="clipPath18"
       clipPathUnits="userSpaceOnUse"><path
         id="path16"
         d="M 0,193.277 H 277.656 V 0 H 0 Z" /></clipPath></defs><g
     transform="matrix(1.3333333,0,0,-1.3333333,0,257.70267)"
     id="g10"><g
       id="g12"><g
         clip-path="url(#clipPath18)"
         id="g14"><g
           transform="translate(80.4493,61.057)"
           id="g20"><path
             id="path22"
             style="fill:#f9ab0c;fill-opacity:1;fill-rule:nonzero;stroke:none"
             d="m 0,0 1.8,3.119 h -31.153 c -3.315,0 -6.158,2.593 -6.219,5.907 -0.062,3.377 2.657,6.134 6.019,6.134 h 5.148 14.304 4.991 3.458 c 9.008,0 16.31,7.302 16.31,16.31 v 0.399 8.893 L 11.915,37.61 C 8.74,33.963 4.142,31.869 -0.693,31.869 h -14.064 -4.991 -7.303 c -10.838,0 -19.899,-7.588 -22.174,-17.741 -0.359,-1.606 -0.556,-3.274 -0.556,-4.989 v 0 c 0,-12.553 10.177,-22.73 22.73,-22.73 h 16.277 c 1.811,0 3.485,0.967 4.391,2.536 z" /></g><g
           transform="translate(63.2018,99.3689)"
           id="g24"><path
             id="path26"
             style="fill:#f9ab0c;fill-opacity:1;fill-rule:nonzero;stroke:none"
             d="m 0,0 c 3.635,-0.019 6.723,2.356 7.77,5.646 1.013,-3.301 4.076,-5.709 7.711,-5.728 4.478,-0.024 8.128,3.588 8.151,8.066 0.024,4.479 -3.587,8.128 -8.066,8.152 C 11.932,16.155 8.844,13.78 7.796,10.49 6.783,13.791 3.72,16.199 0.086,16.218 -4.393,16.242 -8.042,12.63 -8.066,8.152 -8.09,3.673 -4.478,0.024 0,0" /></g><g
           transform="translate(195.769,107.8634)"
           id="g28"><path
             id="path30"
             style="fill:#f9ab0c;fill-opacity:1;fill-rule:nonzero;stroke:none"
             d="M 0,0 C 3.769,-2.419 8.785,-1.325 11.204,2.443 13.624,6.212 12.53,11.229 8.761,13.648 4.992,16.067 -0.024,14.974 -2.443,11.205 -4.863,7.436 -3.769,2.419 0,0" /></g><g
           transform="translate(246.431,75.1851)"
           id="g32"><path
             id="path34"
             style="fill:#f9ab0c;fill-opacity:1;fill-rule:nonzero;stroke:none"
             d="m 0,0 c -2.275,10.152 -11.335,17.741 -22.174,17.741 h -7.303 -4.99 -14.065 c -4.835,0 -9.433,2.094 -12.607,5.741 l -2.744,3.152 v -8.893 -0.399 c 0,-9.008 7.303,-16.31 16.31,-16.31 h 3.459 4.99 11.847 7.606 c 3.315,0 6.159,-2.594 6.219,-5.908 0.062,-3.377 -2.656,-6.133 -6.019,-6.133 h -42.598 v 0 h -7.816 -10e-4 -37.924 l 4.533,7.024 v 0 h -19.295 l -4.055,-7.024 -7.37,-12.765 c -1.012,-1.753 0.253,-3.945 2.278,-3.945 h 14.739 94.806 c 12.553,0 22.73,10.177 22.73,22.73 v 0 C 0.556,-3.274 0.36,-1.606 0,0" /></g><g
           transform="translate(169.1962,142.1116)"
           id="g36"><path
             id="path38"
             style="fill:#f9ab0c;fill-opacity:1;fill-rule:nonzero;stroke:none"
             d="m 0,0 c -0.192,-0.06 -0.383,-0.125 -0.573,-0.191 -3.403,-1.193 -6.43,-3.511 -8.464,-6.799 l -2.802,-5.094 c 0.016,0.002 0.03,0.005 0.046,0.008 0.537,0.081 1.057,0.122 1.546,0.122 1.527,0 2.692,-0.393 3.567,-0.912 0.507,-0.301 1.081,-0.462 1.67,-0.447 0.038,0.001 0.077,0.002 0.115,0.002 1.263,0 2.502,-0.477 3.449,-1.373 1.943,-1.838 3.235,-3.91 3.893,-6.253 3.584,5.947 8.236,13.627 8.737,14.282 2.352,3.07 5.362,5.611 8.816,7.416 C 13.203,0.8 2.389,0.74 0,0" /></g><g
           transform="translate(86.1375,55.6618)"
           id="g40"><path
             id="path42"
             style="fill:#231f20;fill-opacity:1;fill-rule:nonzero;stroke:none"
             d="m 0,0 1.667,2.887 2.607,4.518 0.64,1.109 10.81,18.731 c 3.58,6.2 10.195,10.02 17.355,10.02 h 3.92 3.804 7.964 2.297 4.99 14.304 5.432 c 9.008,0 16.31,-7.303 16.31,-16.311 V 20.555 15.21 c 0,0 -2.005,5.345 -15.351,5.345 H 60.711 46.407 41.417 37.958 37.597 c -3.986,0 -7.668,-2.126 -9.661,-5.578 L 14.251,-8.736 14.012,-9.154 11.93,-12.798 9.065,-17.815 4.874,-25.151 c -0.138,-0.243 -0.282,-0.48 -0.431,-0.713 -0.083,-0.129 -0.172,-0.251 -0.258,-0.377 l -0.178,-0.312 c -2.147,-3.472 -5.401,-5.864 -9.037,-6.99 -3.544,-1.097 -29.351,-0.7 -29.351,-0.7 0,0 12.206,4.919 13.625,5.411 0.823,0.285 1.842,0.787 3.001,1.65 1.958,1.455 4.322,3.945 6.85,8.205 l 5.62,9.823 0.553,0.958 2.1,3.637 2.395,4.149 L 0,0" /></g><g
           transform="translate(135.0343,100.8135)"
           id="g44"><path
             id="path46"
             style="fill:#231f20;fill-opacity:1;fill-rule:nonzero;stroke:none"
             d="m 0,0 c -6.692,0.323 -11.465,3.572 -14.777,9.141 -1.987,3.34 -2.962,6.875 -1.535,10.689 1.213,3.244 3.345,3.757 5.364,1.031 1.631,-2.201 2.952,-4.759 3.847,-7.353 C -5.423,8.641 -4.44,3.484 0,0" /></g><g
           transform="translate(161.7811,123.2061)"
           id="g48"><path
             id="path50"
             style="fill:#231f20;fill-opacity:1;fill-rule:nonzero;stroke:none"
             d="m 0,0 c 2.461,-2.328 2.873,-4.879 2.542,-7.561 -0.814,-6.596 -7.613,-13.614 -14.164,-14.751 -2.168,-0.377 -2.604,0.108 -2.072,2.242 0.869,3.488 3.288,5.863 5.821,8.157 C -4.332,-8.704 -0.866,-5.446 0,0" /></g><g
           transform="translate(128.3091,124.1606)"
           id="g52"><path
             id="path54"
             style="fill:#231f20;fill-opacity:1;fill-rule:nonzero;stroke:none"
             d="m 0,0 c 6.637,-2.733 11.538,-7.178 12.772,-14.85 0.027,-0.167 0.096,-0.352 0.054,-0.502 -0.505,-1.779 -0.56,-4.633 -1.643,-5.101 -2.195,-0.95 -3.897,1.272 -4.853,3.113 -1.154,2.224 -1.767,4.728 -2.625,7.107 C 2.482,-6.839 1.249,-3.448 0,0" /></g><g
           transform="translate(145.6095,109.0482)"
           id="g56"><path
             id="path58"
             style="fill:#231f20;fill-opacity:1;fill-rule:nonzero;stroke:none"
             d="m 0,0 c -0.513,1.808 -1.136,3.805 -1.621,5.836 -0.138,0.576 -0.09,1.412 0.242,1.852 2.998,3.984 6.71,6.901 11.827,7.671 1.811,0.272 2.641,-0.356 1.684,-2.014 C 10.966,11.327 9.645,9.33 8.052,7.644 5.506,4.949 2.68,2.517 0,0" /></g><g
           transform="translate(142.8611,127.6345)"
           id="g60"><path
             id="path62"
             style="fill:#231f20;fill-opacity:1;fill-rule:nonzero;stroke:none"
             d="M 0,0 C -2.842,10.908 17.099,10.202 6.975,35.53 9.547,14.548 -7.189,18.243 0,0" /></g><g
           transform="translate(139.1285,140.481)"
           id="g64"><path
             id="path66"
             style="fill:#231f20;fill-opacity:1;fill-rule:nonzero;stroke:none"
             d="M 0,0 C -3.691,9.089 13.595,10.744 1.983,31.448 6.585,13.637 -8.274,14.924 0,0" /></g><g
           transform="translate(131.4418,31.2383)"
           id="g68"><path
             id="path70"
             style="fill:#231f20;fill-opacity:1;fill-rule:nonzero;stroke:none"
             d="m 0,0 h 0.054 c 0.164,-0.393 0.311,-0.684 0.44,-0.869 l 5.031,-7.263 h 4.486 L 3.573,0.558 9.516,8.487 H 5.29 L 0.526,1.523 C 0.369,1.273 0.211,0.977 0.054,0.633 H 0 V 8.487 H -3.54 V -8.132 H 0 Z" /></g><g
           transform="translate(148.5114,29.962)"
           id="g72"><path
             id="path74"
             style="fill:#231f20;fill-opacity:1;fill-rule:nonzero;stroke:none"
             d="m 0,0 h 7.081 v -6.856 h 3.541 V 9.763 H 7.081 V 3.057 H 0 V 9.763 H -3.54 V -6.856 H 0 Z" /></g><g
           transform="translate(168.9082,29.6508)"
           id="g76"><path
             id="path78"
             style="fill:#231f20;fill-opacity:1;fill-rule:nonzero;stroke:none"
             d="m 0,0 1.899,5.804 c 0.15,0.451 0.247,0.919 0.29,1.405 H 2.286 C 2.335,6.609 2.421,6.125 2.542,5.761 L 4.431,0 Z m 0.247,10.075 -6.083,-16.62 h 3.841 l 1.223,3.808 h 6.04 l 1.244,-3.808 h 3.863 L 4.41,10.075 Z" /></g><g
           transform="translate(184.744,23.106)"
           id="g80"><path
             id="path82"
             style="fill:#231f20;fill-opacity:1;fill-rule:nonzero;stroke:none"
             d="M 0,0 H 3.551 V 13.722 H 8.292 V 16.62 H -4.731 V 13.722 H 0 Z" /></g><g
           transform="translate(200.6971,37.0321)"
           id="g84"><path
             id="path86"
             style="fill:#231f20;fill-opacity:1;fill-rule:nonzero;stroke:none"
             d="M 0,0 H 1.803 C 3.598,0 4.496,-0.751 4.496,-2.253 4.496,-2.976 4.244,-3.578 3.74,-4.061 3.235,-4.544 2.568,-4.785 1.739,-4.785 H 0 Z m 0,-7.489 h 1.073 c 0.386,0 0.752,-0.129 1.095,-0.385 0.343,-0.258 0.783,-0.834 1.32,-1.728 l 2.607,-4.324 h 4.077 l -3.134,4.924 c -0.929,1.43 -1.776,2.275 -2.542,2.533 v 0.043 c 1.158,0.329 2.068,0.897 2.73,1.706 0.662,0.807 0.993,1.777 0.993,2.907 0,3.004 -1.978,4.506 -5.933,4.506 H -3.54 V -13.926 H 0 Z" /></g><g
           transform="translate(218.39,29.6508)"
           id="g88"><path
             id="path90"
             style="fill:#231f20;fill-opacity:1;fill-rule:nonzero;stroke:none"
             d="m 0,0 1.899,5.804 c 0.15,0.451 0.247,0.919 0.29,1.405 H 2.285 C 2.335,6.609 2.421,6.125 2.542,5.761 L 4.431,0 Z m 0.247,10.075 -6.083,-16.62 h 3.841 l 1.223,3.808 h 6.04 l 1.244,-3.808 h 3.863 l -5.966,16.62 z" /></g></g></g></g></svg>